<?xml version="1.0" standalone="no"?>
<!DOCTYPE svg PUBLIC "-//W3C//DTD SVG 20010904//EN"
 "http://www.w3.org/TR/2001/REC-SVG-20010904/DTD/svg10.dtd">
<svg version="1.0" xmlns="http://www.w3.org/2000/svg"
 width="439.000000pt" height="439.000000pt" viewBox="0 0 439.000000 439.000000"
 preserveAspectRatio="xMidYMid meet">
<metadata>
Created by potrace 1.15, written by Peter Selinger 2001-2017
</metadata>
<g transform="translate(0.000000,439.000000) scale(0.100000,-0.100000)"
fill="#000000" stroke="none">
<path d="M2815 4268 c-26 -25 -64 -96 -148 -278 -186 -400 -190 -407 -194
-383 -4 23 -25 36 -45 27 -7 -3 -33 -30 -57 -60 -23 -31 -45 -54 -47 -51 -2 2
0 37 6 78 7 58 6 77 -4 88 -21 20 -48 6 -81 -44 -16 -24 -33 -45 -36 -45 -4 0
0 29 7 65 16 74 11 95 -21 95 -17 0 -35 -18 -71 -70 -26 -38 -48 -70 -49 -70
-1 0 -1 28 -1 63 1 56 -1 62 -21 65 -16 2 -33 -12 -72 -64 -52 -68 -57 -68
-42 -1 9 37 -4 67 -29 67 -12 0 -46 -47 -101 -137 -24 -40 -47 -73 -51 -73 -5
0 -8 15 -8 34 0 56 -16 88 -43 84 -16 -2 -34 -25 -66 -81 -24 -43 -45 -76 -46
-75 -1 2 -42 91 -90 198 -138 306 -202 429 -239 451 -83 51 -185 -7 -249 -142
-29 -63 -91 -266 -106 -353 -32 -177 8 -363 108 -511 28 -40 26 -53 -5 -57
-17 -2 -30 -11 -35 -25 -7 -20 1 -31 68 -88 42 -36 84 -64 92 -63 23 5 26 37
4 53 -22 18 -9 18 57 3 48 -11 54 -10 66 7 26 36 15 56 -85 154 -77 75 -105
110 -129 161 -72 153 -65 352 22 593 35 100 73 174 100 196 17 14 13 33 51
-221 24 -157 103 -497 126 -539 12 -23 55 -25 67 -3 6 11 1 45 -15 103 -28 98
-95 450 -89 466 2 5 38 -62 80 -150 42 -88 94 -196 115 -239 31 -62 38 -84 30
-98 -15 -28 -2 -58 25 -58 18 0 33 18 72 88 l49 87 8 -45 c18 -95 43 -103 89
-29 l33 52 5 -34 c4 -25 10 -35 27 -37 17 -3 34 13 79 72 31 42 58 76 60 76 2
0 2 -33 1 -72 -2 -68 0 -73 19 -76 17 -2 30 10 58 56 55 90 66 96 51 23 -22
-109 20 -124 86 -31 23 33 44 60 46 60 2 0 2 -37 1 -82 -3 -78 -2 -83 19 -86
16 -2 35 14 80 69 l58 72 6 -51 c9 -70 15 -82 39 -82 23 0 27 8 170 324 83
185 139 296 140 279 1 -26 -53 -260 -77 -337 -14 -45 -41 -111 -59 -148 -39
-77 -42 -103 -14 -118 27 -14 50 10 96 102 53 105 79 190 120 382 53 257 75
346 84 346 21 0 110 -115 130 -168 69 -182 64 -389 -15 -548 -37 -76 -128
-182 -194 -229 l-42 -28 31 -20 30 -19 -25 -30 c-30 -36 -31 -40 -5 -63 19
-17 19 -20 4 -36 -9 -10 -14 -26 -10 -35 5 -13 15 -15 54 -9 99 14 136 52 96
97 -16 17 -14 20 25 63 45 49 48 64 14 79 -19 9 -17 13 35 74 110 130 160 290
148 477 -10 179 -60 320 -149 421 -49 56 -84 74 -142 74 -37 0 -51 -6 -80 -32z"/>
<path d="M2615 2909 c-118 -14 -307 -54 -418 -88 -139 -43 -176 -46 -289 -22
-298 62 -624 74 -865 30 -93 -17 -100 -24 -85 -96 8 -39 19 -64 36 -78 15 -12
38 -58 61 -120 55 -149 112 -266 147 -303 52 -53 125 -75 253 -75 110 0 223
21 254 46 11 10 13 8 6 -13 -8 -25 -57 -123 -95 -190 -35 -61 -23 -97 70 -202
32 -37 75 -99 96 -138 39 -75 148 -201 195 -225 105 -55 228 30 342 235 23 41
65 100 94 132 59 65 83 106 83 144 0 15 -19 61 -43 103 -48 85 -91 180 -84
188 3 2 26 -3 52 -11 89 -31 271 -26 378 10 76 25 121 72 156 162 34 90 91
277 91 301 0 10 11 27 24 38 18 16 25 35 31 88 4 44 3 71 -4 78 -14 14 -380
19 -486 6z m-504 -326 c24 -76 73 -178 89 -188 31 -19 -3 -25 -145 -25 l-155
0 25 51 c14 27 35 90 47 140 l21 89 47 0 48 0 23 -67z m129 -300 c20 -12 45
-39 57 -60 36 -64 113 -261 113 -287 0 -16 -11 -33 -32 -50 -52 -38 -238 -146
-254 -146 -42 0 -44 146 -3 226 14 28 44 63 70 82 72 55 87 123 35 158 -33 21
-53 9 -96 -55 -57 -83 -96 -81 -162 6 -24 32 -51 59 -60 61 -28 5 -58 -34 -58
-74 0 -32 8 -44 60 -93 73 -68 100 -124 100 -206 0 -84 -8 -108 -34 -103 -40
8 -267 150 -278 174 -12 26 9 91 82 249 61 132 91 147 290 142 119 -2 139 -5
170 -24z m-246 -633 c50 -16 118 -6 174 25 25 14 47 23 50 20 12 -11 -54 -129
-90 -161 -80 -72 -171 -25 -232 121 -23 54 -20 58 22 31 20 -13 54 -29 76 -36z"/>
<path d="M958 2218 c-70 -41 -83 -63 -52 -89 13 -10 19 -10 36 0 11 7 22 11
24 9 2 -2 -8 -39 -22 -83 -14 -43 -24 -88 -22 -99 4 -25 42 -33 65 -14 15 12
16 10 10 -20 -35 -175 -34 -192 9 -192 25 0 26 -1 18 -42 -5 -24 -9 -70 -9
-103 0 -75 17 -82 83 -30 l47 36 3 -143 c2 -117 5 -145 18 -155 24 -17 43 -5
61 39 19 48 27 41 42 -36 19 -99 17 -106 -26 -103 -51 3 -54 -21 -9 -83 20
-28 36 -51 36 -53 0 -1 -15 -2 -32 -2 -49 0 -47 -30 6 -109 29 -44 39 -66 28
-61 -9 4 -32 9 -49 12 -29 5 -33 3 -33 -16 0 -12 18 -58 41 -102 22 -45 38
-83 35 -86 -2 -2 -14 1 -26 7 -18 10 -25 9 -37 -3 -13 -13 -10 -23 22 -87 34
-68 33 -77 -8 -42 -16 14 -19 14 -33 0 -14 -14 -12 -24 20 -108 20 -50 36 -96
36 -101 0 -5 -12 -3 -27 4 -33 17 -53 12 -53 -11 0 -9 19 -71 43 -137 30 -84
47 -121 60 -123 30 -6 31 27 3 106 -14 41 -25 77 -23 78 2 2 18 -2 35 -8 54
-21 59 -2 23 92 -17 45 -31 84 -31 87 0 3 16 -9 35 -26 40 -35 48 -37 64 -17
10 11 2 33 -34 106 -43 85 -52 121 -23 92 16 -16 47 -15 54 2 3 8 -18 59 -45
115 -28 56 -47 101 -41 101 5 0 28 -7 50 -16 42 -17 70 -14 70 9 0 8 -23 44
-51 81 -28 37 -49 69 -47 71 2 3 21 -7 41 -20 20 -14 43 -25 52 -25 35 0 26
32 -30 106 -51 67 -55 77 -42 92 8 9 29 46 47 80 l34 64 39 -79 c56 -110 63
-113 109 -48 l31 44 46 -67 c36 -52 52 -67 71 -67 42 0 35 32 -30 130 -78 119
-90 124 -134 59 l-23 -35 -37 78 c-52 108 -61 113 -106 51 -16 -22 -30 -39
-31 -37 0 2 -10 53 -22 113 -25 125 -43 149 -79 106 l-20 -25 3 103 c5 138 -3
143 -108 66 -30 -22 -30 -17 6 131 30 123 29 145 -8 145 -9 0 -22 -5 -29 -12
-16 -16 -15 -8 10 104 17 80 19 100 8 113 -7 9 -21 13 -31 10 -23 -8 -23 -4
-4 42 19 44 11 73 -18 73 -12 -1 -52 -19 -89 -42z"/>
<path d="M2983 2244 c-4 -10 11 -51 35 -100 39 -79 40 -83 17 -72 -38 17 -59
4 -52 -35 3 -17 8 -40 12 -50 5 -12 3 -16 -7 -12 -33 13 -41 -20 -32 -130 5
-58 7 -105 5 -105 -3 0 -19 14 -36 30 -21 21 -37 29 -49 24 -15 -6 -17 -21
-16 -108 1 -55 1 -104 1 -108 -1 -4 -15 1 -33 12 -50 30 -63 16 -83 -95 l-17
-95 -25 20 c-33 26 -59 12 -67 -37 -4 -21 -12 -55 -17 -75 l-10 -37 -34 20
c-21 13 -39 17 -48 12 -8 -4 -45 -46 -83 -91 -55 -68 -66 -87 -57 -100 20 -32
49 -19 103 46 28 34 56 62 61 62 6 0 27 -10 48 -22 51 -29 65 -17 81 68 15 78
35 73 35 -9 0 -46 3 -52 22 -55 21 -3 21 -4 -13 -78 -19 -41 -34 -84 -34 -95
0 -30 28 -34 57 -8 29 27 29 29 -11 -94 -27 -82 -28 -90 -12 -105 15 -15 20
-12 71 38 30 30 55 50 55 45 0 -6 -11 -46 -25 -90 -37 -119 -32 -135 33 -109
17 7 32 10 32 6 0 -4 -9 -45 -20 -92 -11 -47 -20 -93 -20 -103 0 -26 28 -32
50 -12 25 22 25 16 0 -90 -25 -108 -26 -135 -2 -135 10 0 28 7 40 16 26 18 26
19 5 -79 -17 -80 -12 -106 20 -94 21 8 79 257 65 274 -14 17 -28 16 -50 -4
-10 -9 -20 -14 -23 -11 -3 3 6 54 20 113 31 134 32 145 2 145 -13 0 -28 -5
-35 -12 -16 -16 -16 -6 3 82 8 40 12 76 9 82 -6 10 -33 7 -66 -6 -13 -6 -9 16
23 120 35 115 38 129 24 143 -13 14 -21 9 -76 -44 -44 -44 -58 -53 -51 -35 5
14 24 62 42 108 17 46 29 89 26 97 -7 19 -30 19 -46 0 -27 -32 -29 -13 -4 36
32 64 27 84 -22 74 -31 -5 -35 -4 -30 12 2 10 12 59 22 108 9 50 20 93 24 98
3 4 25 -3 47 -15 35 -19 43 -20 57 -9 13 11 15 27 10 100 l-7 86 40 -37 c21
-21 44 -38 51 -38 22 0 29 35 21 105 -4 39 -8 87 -8 108 l-1 38 30 -23 c28
-21 31 -21 47 -5 16 15 16 20 -1 69 -9 29 -20 59 -23 67 -4 10 5 8 31 -7 20
-12 46 -22 56 -22 40 0 32 37 -33 152 l-64 113 27 3 c27 3 45 25 35 42 -6 9
-94 30 -126 30 -11 0 -22 -7 -26 -16z"/>
</g>
</svg>
