<?xml version="1.0" standalone="no"?>
<!DOCTYPE svg PUBLIC "-//W3C//DTD SVG 20010904//EN"
 "http://www.w3.org/TR/2001/REC-SVG-20010904/DTD/svg10.dtd">
<svg version="1.0" xmlns="http://www.w3.org/2000/svg"
 width="420.000000pt" height="420.000000pt" viewBox="0 0 420.000000 420.000000"
 preserveAspectRatio="xMidYMid meet">
<metadata>
Created by potrace 1.15, written by Peter Selinger 2001-2017
</metadata>
<g transform="translate(0.000000,420.000000) scale(0.100000,-0.100000)"
fill="#000000" stroke="none">
<path d="M1926 3410 c-164 -26 -356 -94 -559 -198 l-128 -65 -77 17 c-615 138
-932 182 -1011 142 -48 -25 -73 -72 -68 -125 5 -41 13 -52 144 -180 128 -125
144 -145 208 -259 39 -68 86 -144 105 -170 82 -108 281 -224 463 -269 l104
-26 -9 -31 c-9 -27 -3 -46 43 -150 l54 -119 -25 -16 c-54 -35 -81 -69 -101
-125 -23 -67 -20 -111 13 -164 18 -29 20 -43 14 -112 -5 -58 -4 -87 8 -113 18
-44 41 -57 105 -57 27 0 53 -5 56 -11 4 -5 18 -14 31 -19 13 -5 24 -18 24 -28
0 -10 -16 -73 -35 -141 -24 -86 -35 -147 -37 -203 -2 -120 -18 -114 307 -125
366 -13 850 -10 950 6 121 18 178 37 194 63 22 36 26 153 7 242 -10 47 -16
127 -16 202 l0 124 41 0 c31 0 66 13 135 51 l94 50 39 82 c22 45 42 99 46 120
6 28 12 37 28 37 36 0 103 47 121 85 23 47 14 87 -31 136 -32 35 -34 41 -27
84 5 40 3 49 -16 70 -30 32 -83 49 -126 41 -19 -4 -34 -3 -34 2 0 5 33 14 73
20 84 13 306 82 392 122 87 41 157 101 291 251 65 74 160 177 210 230 96 99
115 136 100 193 -9 38 -53 84 -88 91 -17 4 -103 2 -192 -4 -89 -7 -339 -16
-556 -20 l-395 -8 -96 63 c-141 94 -237 134 -443 184 -135 34 -243 43 -330 30z
m324 -115 c151 -44 291 -102 381 -157 46 -27 98 -59 114 -69 30 -18 50 -18
520 -7 270 7 531 12 580 12 l90 1 3 -32 c3 -29 -9 -45 -120 -160 -68 -71 -172
-182 -231 -246 -94 -101 -118 -122 -180 -151 -85 -40 -231 -88 -339 -110 -82
-17 -238 -22 -238 -7 0 14 21 73 42 121 11 24 25 74 31 110 11 74 51 138 120
194 71 57 119 75 259 96 198 30 281 47 323 65 51 21 40 27 -26 15 -30 -6 -133
-15 -229 -19 -147 -7 -188 -13 -257 -35 -107 -35 -168 -77 -222 -154 l-44 -64
18 -58 c16 -51 16 -65 4 -124 -10 -53 -20 -73 -51 -106 -79 -82 -168 -111
-363 -119 -136 -6 -138 -7 -85 -18 53 -10 49 -11 -70 -12 -79 -1 -150 -7 -193
-18 -59 -14 -86 -15 -185 -5 -65 5 -144 8 -177 6 l-60 -5 48 22 c26 12 47 25
47 30 0 12 4 12 -99 -15 -223 -60 -270 -46 -398 121 -26 34 -42 24 -19 -13 10
-14 15 -28 12 -32 -13 -12 -213 20 -301 49 -124 40 -232 106 -324 198 -65 65
-85 94 -135 196 -59 118 -63 123 -199 257 -125 123 -138 138 -128 157 16 29
49 35 150 28 105 -7 575 -95 763 -142 76 -19 153 -35 173 -35 23 0 57 14 102
42 142 87 366 180 513 213 101 23 263 14 380 -20z m596 -1021 c16 -23 16 -28
1 -58 -9 -20 -35 -45 -63 -62 -26 -16 -59 -40 -73 -54 -46 -45 -123 -88 -216
-120 -145 -51 -256 -99 -299 -130 -40 -29 -175 -70 -277 -85 -49 -7 -234 11
-259 26 -10 5 7 8 48 9 47 0 64 4 69 16 3 8 -4 66 -16 129 -11 62 -21 127 -21
144 0 39 27 57 100 66 75 9 260 44 272 51 6 4 47 6 91 5 104 -2 500 27 550 40
20 5 43 19 50 29 16 26 23 25 43 -6z m-1596 1 c0 -8 32 -35 70 -61 71 -46 71
-46 115 -34 42 12 103 10 183 -6 24 -5 36 -2 45 9 15 18 145 32 167 17 12 -7
8 -10 -17 -10 -74 0 -116 -41 -115 -110 1 -36 24 -174 38 -222 4 -15 -1 -18
-28 -18 -41 0 -161 31 -208 53 -73 35 -183 131 -240 212 -71 98 -75 111 -50
153 21 34 40 42 40 17z m1775 -139 l28 -24 -27 -23 c-33 -29 -33 -35 2 -42 15
-3 35 -12 46 -20 16 -11 17 -17 6 -36 -6 -13 -9 -32 -7 -43 5 -17 2 -18 -23
-13 -20 4 -44 -3 -93 -29 -37 -20 -75 -36 -86 -36 -10 0 -31 -13 -44 -30 -29
-33 -28 -34 -46 51 -6 25 -7 58 -3 74 7 25 13 29 48 29 32 1 40 5 42 23 2 12
-5 27 -17 35 -20 14 -20 15 7 40 38 36 93 68 118 68 11 0 33 -11 49 -24z
m-254 -70 c-60 -64 -63 -85 -31 -205 11 -41 20 -85 20 -98 0 -34 19 -28 66 22
34 37 48 45 78 45 43 0 46 -13 15 -80 -26 -58 -63 -96 -121 -126 -53 -27 -75
-29 -112 -12 -33 14 -51 43 -83 126 l-25 67 21 14 c15 9 21 25 22 50 1 80 19
109 109 181 47 38 87 69 89 69 2 1 -19 -23 -48 -53z m-242 -142 c-27 -73 -115
-226 -162 -284 -60 -74 -165 -158 -208 -167 -36 -7 -36 -22 -3 -46 36 -27 67
-11 158 81 81 82 129 149 177 250 17 34 31 62 32 62 2 0 -1 -43 -5 -96 -9
-107 -21 -161 -49 -216 -23 -44 -27 -162 -6 -156 13 5 66 150 67 186 0 46 18
20 23 -35 12 -108 20 -543 11 -543 -5 0 -54 -7 -109 -15 -55 -8 -174 -15 -264
-15 l-164 0 6 258 c4 141 13 316 21 387 9 72 16 133 16 137 0 4 21 10 48 13
84 11 94 15 151 70 40 38 88 69 161 104 58 28 106 51 107 51 1 0 -2 -12 -8
-26z m-1162 -26 c77 -39 83 -44 83 -72 0 -64 -13 -166 -21 -166 -26 0 -105 66
-135 112 -48 74 -61 124 -38 149 9 10 20 19 23 19 3 0 43 -19 88 -42z m-117
-130 c26 -42 30 -56 21 -74 -12 -28 -5 -35 24 -24 18 7 34 2 72 -22 85 -54 86
-55 61 -99 -12 -22 -26 -39 -31 -39 -18 0 -116 81 -171 141 -35 38 -55 69 -58
90 -6 38 8 107 25 127 10 12 13 9 18 -17 4 -18 21 -55 39 -83z m326 56 c29 -6
32 -10 38 -54 9 -65 -10 -141 -47 -197 -29 -43 -94 -99 -104 -89 -3 2 3 26 12
52 9 27 13 59 10 76 -4 15 -3 73 1 129 l7 101 26 -6 c14 -3 40 -9 57 -12z
m187 -127 c66 1 69 1 63 -20 -60 -207 -80 -353 -74 -552 3 -88 7 -167 9 -175
3 -13 -13 -15 -106 -14 -60 0 -156 6 -212 13 l-103 13 0 59 c0 72 5 77 123
143 55 31 106 69 133 100 89 98 79 119 -13 30 -97 -93 -174 -114 -181 -49 -2
15 6 68 18 117 21 83 24 88 40 73 22 -20 38 -19 76 4 38 23 77 100 101 201 16
65 19 71 38 64 11 -5 51 -8 88 -7z m262 -22 c-16 -72 -28 -245 -34 -467 -3
-141 -10 -260 -15 -265 -4 -4 -38 -8 -74 -8 l-67 0 -14 50 c-19 70 -26 317
-12 418 14 91 49 254 61 277 6 11 27 15 84 15 70 0 75 -1 71 -20z"/>
<path d="M426 3141 c5 -4 43 -21 84 -36 133 -50 472 -204 507 -231 58 -44 121
-138 128 -192 8 -54 31 -150 46 -189 17 -46 30 -13 19 47 -7 38 -7 77 2 136
11 74 10 86 -6 122 -42 93 -145 162 -296 200 -41 11 -120 36 -175 57 -180 67
-337 111 -309 86z"/>
<path d="M2416 2889 c-21 -5 -50 -16 -65 -25 -27 -16 -78 -81 -69 -89 2 -3 29
11 60 30 128 80 273 56 338 -57 6 -10 -11 -3 -41 17 -92 63 -190 71 -283 24
-88 -43 -156 -146 -156 -235 0 -38 16 -56 73 -85 35 -18 54 -21 147 -17 100 3
111 6 184 41 88 44 116 78 116 144 0 37 2 41 21 36 21 -6 21 -4 -7 46 -47 87
-91 125 -180 155 -86 28 -82 28 -138 15z"/>
<path d="M1499 2875 c-37 -7 -84 -22 -107 -34 -37 -19 -142 -125 -142 -143 0
-22 34 -2 72 42 55 65 93 88 170 104 85 18 164 -3 243 -64 31 -24 58 -40 61
-37 8 8 -21 59 -48 84 -26 25 -128 64 -162 62 -12 0 -51 -7 -87 -14z"/>
<path d="M1463 2791 c-67 -23 -130 -67 -150 -104 -19 -38 -12 -96 17 -136 42
-60 184 -121 279 -121 107 0 221 61 221 119 0 97 -93 217 -189 245 -70 20
-113 20 -178 -3z"/>
<path d="M1944 2596 c-38 -38 -45 -80 -16 -94 35 -18 82 -22 82 -7 0 7 -10 17
-22 21 -35 10 -46 23 -41 44 11 41 111 51 148 14 23 -23 19 -34 -19 -49 -48
-20 -54 -35 -14 -35 45 0 78 24 78 58 0 37 -10 49 -53 67 -61 25 -104 20 -143
-19z"/>
</g>
</svg>
